<svg width="63" height="53" viewBox="0 0 63 53" fill="none" xmlns="http://www.w3.org/2000/svg">
<circle cx="19.3184" cy="34.5" r="17" fill="white" stroke="#EEEEEE" stroke-width="3"/>
<path d="M62.5582 0.441921C62.5732 0.668997 62.424 0.868862 62.2119 0.926101L62.2063 0.927977C61.0277 1.24889 59.868 1.61108 58.7345 2.03333C58.1686 2.2454 57.6075 2.46591 57.0548 2.70518C56.5012 2.93976 55.9523 3.18279 55.4118 3.44459C53.248 4.47863 51.1931 5.69846 49.247 7.05905C45.3538 9.78209 41.9073 13.0653 38.8137 16.6357C38.0377 17.5271 37.2926 18.4457 36.5551 19.369C35.8194 20.2942 35.1072 21.2373 34.4148 22.1962C33.0251 24.1086 31.7049 26.0734 30.4831 28.0993C29.2652 30.128 28.2039 32.2533 27.214 34.3927L24.3737 40.6467L20.1258 50L15.5139 40.8025C14.6516 39.0825 13.7639 37.356 12.7787 35.6351C11.7962 33.9132 10.7125 32.2073 9.54894 30.5014C8.38634 28.7946 7.13742 27.0925 5.82188 25.3716C4.50728 23.6516 3.11385 21.9166 1.6707 20.1141L1.65568 20.0953C1.48303 19.8795 1.51775 19.5642 1.73357 19.3916C1.84335 19.3034 1.98129 19.2696 2.11171 19.2865C2.42512 19.3268 2.716 19.3784 3.01345 19.4375C3.30621 19.5004 3.59991 19.5633 3.88798 19.6393C4.17792 19.7134 4.46693 19.7904 4.75031 19.8776C5.03462 19.9639 5.32175 20.0493 5.60231 20.146C6.73113 20.5232 7.82897 20.9802 8.90149 21.4925C11.0465 22.52 13.0827 23.7905 14.9856 25.2665C16.6624 26.5689 18.2323 28.0374 19.667 29.6522C21.1195 27.6264 22.6528 25.6709 24.1841 23.7276C25.768 21.7102 27.411 19.7416 29.1526 17.8565C30.8998 15.9779 32.7276 14.1707 34.6672 12.4836C36.5973 10.787 38.6382 9.21346 40.7635 7.76843C41.8266 7.04685 42.9179 6.36562 44.0289 5.72192C45.139 5.07729 46.2734 4.47488 47.4313 3.92408C49.7424 2.81684 52.1427 1.90384 54.5974 1.23481C55.2101 1.06591 55.8275 0.917656 56.4459 0.778782C57.0642 0.641786 57.6873 0.527309 58.3103 0.422216C58.9324 0.317122 59.5583 0.233611 60.1823 0.159482C60.8063 0.085354 61.434 0.040314 62.058 0.000904006C62.318 -0.0150477 62.5422 0.182002 62.5582 0.441921Z" fill="#22C55E"/>
</svg>
