<svg viewBox="0 0 160 160" version="1.1" id="svg_null">
    <g id="root" stroke="none" stroke-width="1" fill="none" fill-rule="evenodd">
        <rect id="background.accent" fill="#8bdeff" x="0" y="0" width="160" height="160"></rect>
        <path d="M101.606 92.467c-0.032 0 -0.063 -0.016 -0.094 -0.032c-0.048 -0.031 -0.079 -0.11 -0.063 -0.172l0.69 -2.573l-2.07 -1.678c-0.063 -0.032 -0.079 -0.11 -0.063 -0.173c0.015 -0.063 0.078 -0.11 0.14 -0.11l2.668 -0.14l0.956 -2.495c0.032 -0.047 0.094 -0.094 0.157 -0.094c0.063 0 0.126 0.047 0.141 0.094l0.957 2.494l2.667 0.141c0.063 0 0.125 0.047 0.141 0.11c0.016 0.063 0 0.126 -0.047 0.173l-2.07 1.678l0.69 2.573c0.015 0.062 0 0.125 -0.063 0.172c-0.047 0.032 -0.126 0.047 -0.173 0l-2.243 -1.443l-2.243 1.443c-0.031 0.032 -0.047 0.032 -0.078 0.032zm12 0c-0.032 0 -0.063 -0.016 -0.094 -0.032c-0.048 -0.031 -0.079 -0.11 -0.063 -0.172l0.69 -2.573l-2.07 -1.678c-0.063 -0.032 -0.079 -0.11 -0.063 -0.173c0.015 -0.063 0.078 -0.11 0.14 -0.11l2.668 -0.14l0.956 -2.495c0.032 -0.047 0.094 -0.094 0.157 -0.094c0.063 0 0.126 0.047 0.141 0.094l0.957 2.494l2.667 0.141c0.063 0 0.125 0.047 0.141 0.11c0.016 0.063 0 0.126 -0.047 0.173l-2.07 1.678l0.69 2.573c0.015 0.062 0 0.125 -0.063 0.172c-0.047 0.032 -0.126 0.047 -0.173 0l-2.243 -1.443l-2.243 1.443c-0.031 0.032 -0.047 0.032 -0.078 0.032zm12 0c-0.032 0 -0.063 -0.016 -0.094 -0.032c-0.048 -0.031 -0.079 -0.11 -0.063 -0.172l0.69 -2.573l-2.07 -1.678c-0.063 -0.032 -0.079 -0.11 -0.063 -0.173c0.015 -0.063 0.078 -0.11 0.14 -0.11l2.668 -0.14l0.956 -2.495c0.032 -0.047 0.094 -0.094 0.157 -0.094c0.063 0 0.126 0.047 0.141 0.094l0.957 2.494l2.667 0.141c0.063 0 0.125 0.047 0.141 0.11c0.016 0.063 0 0.126 -0.047 0.173l-2.07 1.678l0.69 2.573c0.015 0.062 0 0.125 -0.063 0.172c-0.047 0.032 -0.126 0.047 -0.173 0l-2.243 -1.443l-2.243 1.443c-0.031 0.032 -0.047 0.032 -0.078 0.032zm-96 0c-0.032 0 -0.063 -0.016 -0.094 -0.032c-0.048 -0.031 -0.079 -0.11 -0.063 -0.172l0.69 -2.573l-2.07 -1.678c-0.063 -0.032 -0.079 -0.11 -0.063 -0.173c0.015 -0.063 0.078 -0.11 0.14 -0.11l2.668 -0.14l0.956 -2.495c0.032 -0.047 0.094 -0.094 0.157 -0.094c0.063 0 0.126 0.047 0.141 0.094l0.957 2.494l2.667 0.141c0.063 0 0.125 0.047 0.141 0.11c0.016 0.063 0 0.126 -0.047 0.173l-2.07 1.678l0.69 2.573c0.015 0.062 0 0.125 -0.063 0.172c-0.047 0.032 -0.126 0.047 -0.173 0l-2.243 -1.443l-2.243 1.443c-0.031 0.032 -0.047 0.032 -0.078 0.032zm12 0c-0.032 0 -0.063 -0.016 -0.094 -0.032c-0.048 -0.031 -0.079 -0.11 -0.063 -0.172l0.69 -2.573l-2.07 -1.678c-0.063 -0.032 -0.079 -0.11 -0.063 -0.173c0.015 -0.063 0.078 -0.11 0.14 -0.11l2.668 -0.14l0.956 -2.495c0.032 -0.047 0.094 -0.094 0.157 -0.094c0.063 0 0.126 0.047 0.141 0.094l0.957 2.494l2.667 0.141c0.063 0 0.125 0.047 0.141 0.11c0.016 0.063 0 0.126 -0.047 0.173l-2.07 1.678l0.69 2.573c0.015 0.062 0 0.125 -0.063 0.172c-0.047 0.032 -0.126 0.047 -0.173 0l-2.243 -1.443l-2.243 1.443c-0.031 0.032 -0.047 0.032 -0.078 0.032zm12 0c-0.032 0 -0.063 -0.016 -0.094 -0.032c-0.048 -0.031 -0.079 -0.11 -0.063 -0.172l0.69 -2.573l-2.07 -1.678c-0.063 -0.032 -0.079 -0.11 -0.063 -0.173c0.015 -0.063 0.078 -0.11 0.14 -0.11l2.668 -0.14l0.956 -2.495c0.032 -0.047 0.094 -0.094 0.157 -0.094c0.063 0 0.126 0.047 0.141 0.094l0.957 2.494l2.667 0.141c0.063 0 0.125 0.047 0.141 0.11c0.016 0.063 0 0.126 -0.047 0.173l-2.07 1.678l0.69 2.573c0.015 0.062 0 0.125 -0.063 0.172c-0.047 0.032 -0.126 0.047 -0.173 0l-2.243 -1.443l-2.243 1.443c-0.031 0.032 -0.047 0.032 -0.078 0.032zm-37.606 -15.467l128 0l0 3l-128 0l0 -3z" id="shape.primary" fill="#26466f" fill-rule="nonzero"></path>
        <g id="group" transform="translate(16.000000, 52.000000)">
            <rect id="Rectangle-14" x="0" y="0" width="128" height="22"></rect>
            <text id="headerText.primary" font-size="18" font-weight="700" letter-spacing="0.50" fill="#26466f" data-text-alignment="C" font-style="normal">
                <tspan text-anchor="middle" x="40%" y="17.5">توظيف</tspan>
            </text>
        </g>
        <rect id="icon.primary" x="68" y="85" width="24" height="24" display="none" fill="#26466f"></rect>
        <svg xmlns="http://www.w3.org/2000/svg"
            xmlns:xlink="http://www.w3.org/1999/xlink" viewBox="0 0 50 50" version="1.1" fill="#26466f" id="svg_icon.primary" x="68" y="85" width="24" height="24">
            <g id="surface1">
                <path style="" d="M 11 0 C 10.476563 0 9.941406 0.183594 9.5625 0.5625 C 9.183594 0.941406 9 1.476563 9 2 L 9 19 C 9 19.523438 9.183594 20.058594 9.5625 20.4375 C 9.941406 20.816406 10.476563 21 11 21 L 39 21 C 39.523438 21 40.058594 20.816406 40.4375 20.4375 C 40.816406 20.058594 41 19.523438 41 19 L 41 2 C 41 1.476563 40.816406 0.941406 40.4375 0.5625 C 40.058594 0.183594 39.523438 0 39 0 Z M 11 2 L 39 2 L 39 19 L 11 19 Z M 23 6 L 23 13.09375 L 24.8125 11.40625 L 25.90625 14 L 26.90625 13.59375 L 25.6875 11 L 28.09375 10.8125 Z M 18 22 L 18 24 L 32 24 L 32 22 Z M 0.8125 25 C 0.335938 25.089844 -0.0078125 25.511719 0 26 L 0 30 C 0 30.550781 0.449219 31 1 31 L 2 31 L 2 49 C 2 49.550781 2.449219 50 3 50 L 7 50 C 7.550781 50 8 49.550781 8 49 L 8 31 L 42 31 L 42 49 C 42 49.550781 42.449219 50 43 50 L 47 50 C 47.550781 50 48 49.550781 48 49 L 48 31 L 49 31 C 49.550781 31 50 30.550781 50 30 L 50 26 C 50 25.449219 49.550781 25 49 25 L 1 25 C 0.96875 25 0.9375 25 0.90625 25 C 0.875 25 0.84375 25 0.8125 25 Z M 2 27 L 48 27 L 48 29 L 2 29 Z M 4 31 L 6 31 L 6 48 L 4 48 Z M 44 31 L 46 31 L 46 48 L 44 48 Z "></path>
            </g>
        </svg>
    </g>
</svg>